<svg xmlns="http://www.w3.org/2000/svg" width="71.709" height="29.562" viewBox="0 0 71.709 29.562">\
                                <g style="isolation:isolate">\
                                    <g style="isolation:isolate">\
                                        <path d="M.164,14.638c0-2.051-.041-3.732-.164-5.371H3.157l.164,3.2h.123A6.84,6.84,0,0,1,9.676,8.815a5.866,5.866,0,0,1,5.617,3.977h.082a8.186,8.186,0,0,1,2.214-2.583,6.778,6.778,0,0,1,4.387-1.394c2.624,0,6.519,1.722,6.519,8.61V29.11H24.969V17.876c0-3.813-1.394-6.108-4.305-6.108A4.67,4.67,0,0,0,16.4,15.047a5.943,5.943,0,0,0-.287,1.8V29.11H12.587V17.221c0-3.158-1.394-5.453-4.141-5.453a4.929,4.929,0,0,0-4.469,3.607,4.975,4.975,0,0,0-.287,1.764V29.11H.164Z" fill="#1a171b"></path>\
                                        <path d="M51.5,0V23.985c0,1.763.041,3.773.164,5.125H48.421l-.164-3.444h-.082a7.343,7.343,0,0,1-6.766,3.9c-4.8,0-8.486-4.06-8.486-10.086-.041-6.6,4.058-10.661,8.9-10.661a6.635,6.635,0,0,1,5.987,3.035h.082V0ZM47.888,17.343a6.374,6.374,0,0,0-.164-1.517,5.306,5.306,0,0,0-5.207-4.181c-3.731,0-5.946,3.279-5.946,7.667,0,4.017,1.969,7.338,5.864,7.338a5.424,5.424,0,0,0,5.289-4.3,6.275,6.275,0,0,0,.164-1.559Z" fill="#1a171b"></path>\
                                        <path d="M71.627,28.372a13.282,13.282,0,0,1-5.7,1.149c-5.986,0-9.881-4.06-9.881-10.127,0-6.11,4.182-10.538,10.66-10.538a12.073,12.073,0,0,1,5,1.025l-.82,2.788a8.368,8.368,0,0,0-4.182-.942c-4.552,0-7.011,3.361-7.011,7.5,0,4.592,2.951,7.421,6.888,7.421a10.25,10.25,0,0,0,4.428-.984Z" fill="#1a171b"></path>\
                                    </g>\
                                </g>\
                            </svg>