<?xml version="1.0" encoding="UTF-8"?>
<!DOCTYPE svg PUBLIC "-//W3C//DTD SVG 1.1//EN" "http://www.w3.org/Graphics/SVG/1.1/DTD/svg11.dtd">
<!-- Creator: CorelDRAW X8 -->
<svg xmlns="http://www.w3.org/2000/svg" xml:space="preserve" width="85.5mm" height="17.5mm" version="1.1" style="shape-rendering:geometricPrecision; text-rendering:geometricPrecision; image-rendering:optimizeQuality; fill-rule:evenodd; clip-rule:evenodd"
viewBox="0 0 10550 1750"
 xmlns:xlink="http://www.w3.org/1999/xlink">
 <defs>
  <style type="text/css">
   <![CDATA[
    .fil0 {fill:#000003;fill-rule:nonzero}
   ]]>
  </style>
 </defs>
 <g id="Capa_x0020_1">
  <metadata id="CorelCorpID_0Corel-Layer"/>
  <path class="fil0" d="M2390 1349l0 -813 148 0c82,0 143,17 184,51 50,41 75,97 75,170 0,46 -12,86 -37,119 -9,11 -23,24 -43,39 33,9 61,24 84,44 46,41 69,95 69,161 0,71 -27,129 -82,174 -45,37 -110,55 -195,55l-203 0zm92 -454l67 0c39,0 68,-4 85,-12 26,-11 46,-31 60,-59 10,-19 14,-41 14,-66 0,-46 -14,-82 -42,-107 -23,-20 -61,-30 -114,-30l-70 0 0 274zm0 370l103 0c48,0 82,-5 103,-13 60,-24 91,-69 92,-135 0,-23 -6,-47 -19,-69 -13,-23 -29,-40 -49,-51 -31,-16 -77,-25 -139,-25l-91 0 0 293zm976 -644l-330 0 0 241 321 0 0 85 -321 0 0 318 330 0 0 84 -421 0 0 -813 421 0 0 85zm167 728l0 -847 633 664 0 -630 91 0 0 850 -633 -663 0 626 -91 0zm1357 -728l-330 0 0 241 321 0 0 85 -321 0 0 318 330 0 0 84 -422 0 0 -813 422 0 0 85zm258 -85l0 813 -92 0 0 -813 92 0zm409 85l0 728 -91 0 0 -728 -197 0 0 -85 486 0 0 85 -198 0zm663 -98c118,0 220,46 305,139 73,80 110,174 110,282 0,123 -46,226 -139,310 -81,73 -175,110 -284,110 -126,0 -232,-47 -318,-142 -70,-78 -105,-171 -105,-280 0,-118 45,-219 134,-303 82,-78 181,-116 297,-116zm-13 85c-97,-1 -179,38 -245,116 -54,62 -81,136 -81,220 0,93 32,172 96,237 65,65 143,97 235,98 100,0 183,-38 250,-116 55,-61 82,-135 82,-222 0,-93 -34,-173 -102,-240 -62,-62 -141,-93 -235,-93zm1270 13l-279 0 0 241 270 0 0 85 -270 0 0 402 -91 0 0 -813 370 0 0 85zm546 498l-348 0 -98 230 -99 0 375 -852 365 852 -100 0 -95 -230zm-36 -84l-136 -326 -139 326 275 0zm407 -499l0 498c0,51 2,88 9,111 10,41 34,74 71,99 35,23 74,35 118,35 48,0 90,-13 125,-39 38,-28 60,-65 69,-111 3,-20 5,-52 5,-95l0 -498 91 0 0 523c0,43 -4,80 -12,111 -21,74 -70,130 -149,166 -40,18 -82,28 -129,28 -62,0 -119,-16 -170,-50 -54,-36 -89,-83 -106,-141 -9,-29 -13,-67 -13,-114l0 -523 91 0zm912 449l258 364 -111 0 -245 -357 -23 0 0 357 -91 0 0 -813 131 0c86,0 151,15 195,44 59,40 89,102 90,184 0,80 -29,140 -88,181 -32,22 -71,35 -116,40zm-121 -72l56 0c119,0 179,-50 179,-149 1,-53 -19,-92 -58,-117 -28,-18 -69,-26 -123,-26l-54 0 0 292zm943 -292l-330 0 0 241 321 0 0 85 -321 0 0 318 330 0 0 84 -421 0 0 -813 421 0 0 85z"/>
  <path class="fil0" d="M10419 339c14,0 38,3 38,-15 0,-12 -15,-14 -27,-14l-30 0 0 29 19 0zm52 67l-19 0 -33 -51 -19 -1 0 52 -16 0 0 -112 49 0c20,0 40,6 40,30 0,22 -16,30 -36,31l34 51zm38 -55c0,-48 -40,-87 -87,-87 -47,0 -87,39 -87,87 0,48 40,86 87,86 47,0 87,-38 87,-86zm-190 0c1,-57 46,-102 103,-102 58,0 103,45 103,102 0,57 -45,102 -103,102 -57,0 -103,-45 -103,-102z"/>
  <path class="fil0" d="M328 1513c-319,-318 -327,-831 -26,-1160 8,-10 17,-19 26,-28 9,-9 18,-17 27,-26 155,-142 355,-220 567,-220 224,0 435,87 594,246 161,161 243,372 246,584 0,-9 0,-17 0,-25 0,-479 -389,-869 -868,-869 -479,0 -869,390 -869,869 0,419 299,771 696,851 -148,-36 -283,-112 -393,-222z"/>
  <path class="fil0" d="M355 1352c85,85 187,146 299,179 -86,-34 -164,-85 -231,-152 -257,-257 -264,-670 -22,-936 7,-8 14,-15 22,-23 128,-128 298,-199 480,-199 181,0 351,71 479,199 68,68 118,147 151,231 -32,-110 -91,-213 -178,-299 -133,-134 -311,-208 -500,-208 -177,0 -344,65 -475,183 -8,8 -17,16 -25,25 -9,8 -17,17 -25,26 -118,130 -183,297 -183,474 0,189 74,367 208,500z"/>
  <path class="fil0" d="M1355 447c-55,-55 -118,-99 -187,-130 50,27 96,62 137,103 243,243 243,639 0,882 -118,117 -275,182 -441,182 -167,0 -323,-65 -441,-182 -41,-42 -76,-88 -103,-137 31,68 74,132 130,187 121,121 282,188 453,188 171,0 331,-67 452,-188 8,-7 16,-15 23,-24 227,-251 219,-639 -23,-881z"/>
  <path class="fil0" d="M894 430c249,0 453,204 453,454 0,250 -204,453 -453,453 -250,0 -454,-203 -454,-453 0,-250 204,-454 454,-454zm-444 845c110,111 257,171 414,171 156,0 303,-60 414,-171 228,-228 228,-600 0,-828 -111,-111 -258,-172 -414,-172 -157,0 -304,61 -414,172 -229,228 -229,600 0,828z"/>
  <path class="fil0" d="M922 1721c214,0 416,-83 567,-235 313,-312 313,-821 0,-1134 -133,-134 -306,-215 -492,-232 145,28 278,98 385,205 282,282 290,737 24,1029 -8,8 -16,17 -24,25 -8,8 -16,16 -24,23 -138,126 -315,195 -503,195 -199,0 -386,-77 -527,-218 -105,-105 -175,-237 -204,-380 18,178 95,351 231,487 151,152 353,235 567,235z"/>
 </g>
</svg>
