<svg xmlns="http://www.w3.org/2000/svg" width="141.016" height="38.019" viewBox="0 0 141.016 38.019"><defs><style>.a{fill:#f27c00;}</style></defs><g transform="translate(779.411 -343.637)"><path d="M-723.575,372.979V372.2H-726.7v5.358h1.068v-2.331h1.962v-.79h-1.962v-1.459Zm77.711.046V372.2h-3.9v.823h1.414v4.535h1.058v-4.535Zm-7.988.727c0,.509-.38.811-1.076.811h-.54V372.95h.464c.78,0,1.153.238,1.153.8m1.365,3.807-.74-1.86c-.164-.41-.281-.678-.689-.811a1.272,1.272,0,0,0,1.12-1.306c0-.926-.658-1.382-1.96-1.382h-1.756v5.358h1.043v-2.246h.333a.824.824,0,0,1,.934.626l.6,1.62Zm-7.608,0v-.811h-2.294v-1.568h2.1v-.786h-2.1v-1.424h2.214v-.77h-3.274v5.358Zm-7.752-3.691c0,.57-.371.894-1.066.894h-.431v-1.806h.494c.65,0,1,.332,1,.912m1.082,0c0-1.144-.672-1.669-2.046-1.669H-670.4v5.36h1.058v-2.038h.57c1.3,0,2.009-.626,2.009-1.653m-6.815,3.691-1.862-2.811,1.684-2.547h-1.152l-1.114,2.016-1.141-2.016H-678.4l1.692,2.547-1.887,2.811h1.167l1.316-2.223,1.287,2.223Zm-8.035,0v-.811h-2.3v-1.568h2.1v-.786h-2.1v-1.424h2.219v-.77h-3.275v5.358Zm-12.784-3.807c0,.509-.379.811-1.071.811h-.54V372.95h.463c.778,0,1.148.238,1.148.8m1.369,3.807-.742-1.86c-.163-.41-.278-.678-.689-.811a1.275,1.275,0,0,0,1.122-1.306c0-.926-.656-1.382-1.962-1.382h-1.753v5.358h1.043v-2.246h.329a.829.829,0,0,1,.937.626l.6,1.62Zm-8.6-2.7c0,1.228-.61,1.994-1.469,1.994s-1.459-.757-1.459-1.994.6-1.984,1.459-1.984,1.469.757,1.469,1.984m1.073.015a2.471,2.471,0,0,0-2.542-2.793c-1.568,0-2.535,1.042-2.535,2.793s.967,2.789,2.535,2.789,2.542-1.035,2.542-2.789m-9.421-.015c0,1.228-.611,1.994-1.467,1.994s-1.46-.757-1.46-1.994.6-1.984,1.46-1.984,1.467.757,1.467,1.984m1.073.015a2.471,2.471,0,0,0-2.54-2.793c-1.569,0-2.532,1.042-2.532,2.793s.964,2.789,2.532,2.789,2.54-1.035,2.54-2.789m-8.077,2.681v-.818h-2.147V372.2h-1.057v5.358Z" transform="translate(7.39 3.988)"/><rect width="55.768" height="0.784" transform="translate(-779.41 376.17)"/><path d="M-765.182,353.189l-2.938,9.352h5.834Zm6.286,19.6-1.447-4.224h-9.718l-1.488,4.224h-7.862l11.29-29.154h5.874l11.294,29.154Z" transform="translate(0 0)"/><path d="M-741.4,355.593c-4.137,0-5,1.394-5,5.455v10.9h-6.619V349.934h6.206v3a5.7,5.7,0,0,1,5.582-3.323v5.986Z" transform="translate(3.7 0.837)"/><path d="M-728.624,356.185A5.34,5.34,0,0,0-734,361.718a5.226,5.226,0,0,0,5.172,5.334,5.429,5.429,0,0,0,5.749-5.416,5.51,5.51,0,0,0-5.542-5.451m8.188,14.147a10.139,10.139,0,0,1-6.946,2.583,8.655,8.655,0,0,1-6.578-2.583v2.458h-6.329V343.637h6.577v9.594a7.4,7.4,0,0,1,6.205-2.785,10.374,10.374,0,0,1,7.4,3.034,11.127,11.127,0,0,1,3.554,8.2,11.146,11.146,0,0,1-3.887,8.652" transform="translate(5.484 0)"/><rect width="6.492" height="15.225" transform="translate(-707.712 350.773)"/><path d="M-698.938,355.61V372.79h-6.616V355.61h-2.813v-4.839h2.813v-7.134h6.616v7.134H-696v4.839Z" transform="translate(9.96 0)"/><path d="M-684.838,355.539a5.349,5.349,0,0,0-5.253,5.456,5.361,5.361,0,0,0,5.253,5.411,5.332,5.332,0,0,0,5.25-5.411,5.345,5.345,0,0,0-5.25-5.456m8.4,13.573a11.566,11.566,0,0,1-8.438,3.445,11.014,11.014,0,0,1-8.394-3.528,11.451,11.451,0,0,1-3.268-8.118,11.23,11.23,0,0,1,3.391-8.075,11.649,11.649,0,0,1,8.185-3.444,11.693,11.693,0,0,1,8.233,3.2,11.4,11.4,0,0,1,3.641,8.241,11.163,11.163,0,0,1-3.35,8.282" transform="translate(11.618 0.807)"/><path d="M-659.8,372V360.069c0-3.077-.659-4.468-3.185-4.468-2.565,0-3.931,1.515-3.931,4.468V372h-6.409V349.981h6.2l-.082,2.95a6.922,6.922,0,0,1,6.368-3.36c4.59,0,7.57,2.871,7.57,7.915V372Z" transform="translate(14.872 0.832)"/><rect class="a" width="6.492" height="5.126" transform="translate(-707.73 367.657)"/></g></svg>