<?xml version="1.0" encoding="UTF-8" standalone="no"?>
<!DOCTYPE svg PUBLIC "-//W3C//DTD SVG 1.1//EN" "http://www.w3.org/Graphics/SVG/1.1/DTD/svg11.dtd">
<svg width="100%" height="100%" viewBox="0 0 210 150" version="1.1" xmlns="http://www.w3.org/2000/svg" xmlns:xlink="http://www.w3.org/1999/xlink" xml:space="preserve" xmlns:serif="http://www.serif.com/" style="fill-rule:evenodd;clip-rule:evenodd;stroke-linejoin:round;stroke-miterlimit:2;">
    <g id="Mesa-de-trabajo1" serif:id="Mesa de trabajo1" transform="matrix(0.410156,0,0,1,0,0)">
        <rect x="0" y="0" width="512" height="150" style="fill:none;"/>
        <g transform="matrix(0.155749,0,0,0.0638813,-187.692,-10.2716)">
            <g transform="matrix(0.489153,0,0,0.489153,3652.79,146.214)">
                <path d="M1340.4,845.032C1372.49,845.032 1398.79,852.967 1418.6,872.238C1438.28,891.406 1450.79,917.727 1455.78,954.064L1455.82,954.703L1569.74,1709.93L1569.74,1712.26C1569.82,1716.28 1569.82,1754.94 1544.29,1781C1528.42,1797.2 1506.92,1810.53 1480.39,1810.53L1313.19,1810.53L1313.19,1983.34C1339.48,1985.78 1360.09,2007.92 1360.09,2034.84C1360.09,2063.39 1336.91,2086.56 1308.37,2086.56C1279.82,2086.56 1256.64,2063.39 1256.64,2034.84C1256.64,2009.42 1275.02,1988.26 1299.19,1983.93L1299.19,1810.53L1133.27,1810.53L1133.27,2342.27L1496.72,2342.27C1516.63,2342.27 1564.24,2361.63 1564.23,2416.93C1564.21,2474.09 1516.81,2496.18 1496.72,2496.18L548.936,2496.18C528.861,2496.18 508.724,2486.06 495.038,2470.7C482.218,2456.34 473.624,2435.85 473.624,2416.12L473.624,2416.04C473.624,2396.19 482.466,2377.27 495.78,2363.81C509.177,2350.29 529.046,2342.27 548.936,2342.27L898.574,2342.27L898.574,1810.53L561.529,1810.53C534.982,1810.53 513.506,1797.26 497.635,1781.06C472.14,1755.01 472.14,1713.8 472.222,1709.76L472.263,1708.86L562.477,954.62C570.392,885.904 615.694,845.032 677.899,845.032L1340.4,845.032ZM1480.39,1768.55C1495.46,1768.55 1506.57,1759.73 1514.38,1751.77C1526.36,1739.55 1527.72,1715.45 1527.86,1711.52L1414.25,959.752C1410.56,932.979 1392.75,884.914 1343.38,884.914L675.632,884.914C634.884,884.914 610.151,906.679 599.557,958.949L599.557,959.031L511.878,1713.74C512.001,1717.93 515.608,1739.59 527.748,1751.83C535.539,1759.66 546.586,1768.55 561.529,1768.55L940.538,1768.55L940.538,2384.24L548.936,2384.24C531.046,2384.24 515.608,2397.94 515.608,2416.04L515.608,2416.12C515.2,2439.01 527.679,2454.95 548.936,2454.21L1496.72,2454.21C1515.49,2454.21 1522.48,2430.64 1522.48,2418.98C1522.48,2407.32 1512.61,2384.24 1494.72,2384.24L1091.31,2384.24L1091.31,1768.55L1480.39,1768.55Z"/>
            </g>
            <g transform="matrix(0.489153,0,0,0.489153,3652.79,146.214)">
                <path d="M1340.4,845.032C1372.49,845.032 1398.79,852.967 1418.6,872.238C1438.28,891.406 1450.79,917.727 1455.78,954.064L1455.82,954.703L1569.74,1709.93L1569.74,1712.26C1569.82,1716.28 1569.82,1754.94 1544.29,1781C1528.42,1797.2 1506.92,1810.53 1480.39,1810.53L1313.19,1810.53L1313.19,1983.34C1339.48,1985.78 1360.09,2007.92 1360.09,2034.84C1360.09,2063.39 1336.91,2086.56 1308.37,2086.56C1279.82,2086.56 1256.64,2063.39 1256.64,2034.84C1256.64,2009.42 1275.02,1988.26 1299.19,1983.93L1299.19,1810.53L1133.27,1810.53L1133.27,2342.27L1496.72,2342.27C1516.63,2342.27 1564.24,2361.63 1564.23,2416.93C1564.21,2474.09 1516.81,2496.18 1496.72,2496.18L548.936,2496.18C528.861,2496.18 508.724,2486.06 495.038,2470.7C482.218,2456.34 473.624,2435.85 473.624,2416.12L473.624,2416.04C473.624,2396.19 482.466,2377.27 495.78,2363.81C509.177,2350.29 529.046,2342.27 548.936,2342.27L898.574,2342.27L898.574,1810.53L561.529,1810.53C534.982,1810.53 513.506,1797.26 497.635,1781.06C472.14,1755.01 472.14,1713.8 472.222,1709.76L472.263,1708.86L562.477,954.62C570.392,885.904 615.694,845.032 677.899,845.032L1340.4,845.032ZM1480.39,1768.55C1495.46,1768.55 1506.57,1759.73 1514.38,1751.77C1526.36,1739.55 1527.72,1715.45 1527.86,1711.52L1414.25,959.752C1410.56,932.979 1392.75,884.914 1343.38,884.914L675.632,884.914C634.884,884.914 610.151,906.679 599.557,958.949L599.557,959.031L511.878,1713.74C512.001,1717.93 515.608,1739.59 527.748,1751.83C535.539,1759.66 546.586,1768.55 561.529,1768.55L940.538,1768.55L940.538,2384.24L548.936,2384.24C531.046,2384.24 515.608,2397.94 515.608,2416.04L515.608,2416.12C515.2,2439.01 527.679,2454.95 548.936,2454.21L1496.72,2454.21C1515.49,2454.21 1522.48,2430.64 1522.48,2418.98C1522.48,2407.32 1512.61,2384.24 1494.72,2384.24L1091.31,2384.24L1091.31,1768.55L1480.39,1768.55Z"/>
            </g>
            <g transform="matrix(0.489153,0,0,0.489153,3652.79,146.214)">
                <path d="M1340.4,845.032C1372.49,845.032 1398.79,852.967 1418.6,872.238C1438.28,891.406 1450.79,917.727 1455.78,954.064L1455.82,954.703L1569.74,1709.93L1569.74,1712.26C1569.82,1716.28 1569.82,1754.94 1544.29,1781C1528.42,1797.2 1506.92,1810.53 1480.39,1810.53L1313.19,1810.53L1313.19,1983.34C1339.48,1985.78 1360.09,2007.92 1360.09,2034.84C1360.09,2063.39 1336.91,2086.56 1308.37,2086.56C1279.82,2086.56 1256.64,2063.39 1256.64,2034.84C1256.64,2009.42 1275.02,1988.26 1299.19,1983.93L1299.19,1810.53L1133.27,1810.53L1133.27,2342.27L1496.72,2342.27C1516.63,2342.27 1564.24,2361.63 1564.23,2416.93C1564.21,2474.09 1516.81,2496.18 1496.72,2496.18L548.936,2496.18C528.861,2496.18 508.724,2486.06 495.038,2470.7C482.218,2456.34 473.624,2435.85 473.624,2416.12L473.624,2416.04C473.624,2396.19 482.466,2377.27 495.78,2363.81C509.177,2350.29 529.046,2342.27 548.936,2342.27L898.574,2342.27L898.574,1810.53L561.529,1810.53C534.982,1810.53 513.506,1797.26 497.635,1781.06C472.14,1755.01 472.14,1713.8 472.222,1709.76L472.263,1708.86L562.477,954.62C570.392,885.904 615.694,845.032 677.899,845.032L1340.4,845.032ZM1480.39,1768.55C1495.46,1768.55 1506.57,1759.73 1514.38,1751.77C1526.36,1739.55 1527.72,1715.45 1527.86,1711.52L1414.25,959.752C1410.56,932.979 1392.75,884.914 1343.38,884.914L675.632,884.914C634.884,884.914 610.151,906.679 599.557,958.949L599.557,959.031L511.878,1713.74C512.001,1717.93 515.608,1739.59 527.748,1751.83C535.539,1759.66 546.586,1768.55 561.529,1768.55L940.538,1768.55L940.538,2384.24L548.936,2384.24C531.046,2384.24 515.608,2397.94 515.608,2416.04L515.608,2416.12C515.2,2439.01 527.679,2454.95 548.936,2454.21L1496.72,2454.21C1515.49,2454.21 1522.48,2430.64 1522.48,2418.98C1522.48,2407.32 1512.61,2384.24 1494.72,2384.24L1091.31,2384.24L1091.31,1768.55L1480.39,1768.55Z"/>
            </g>
            <path d="M1449.55,964.919C1449.6,965.071 1449.61,965.109 1449.55,964.919Z"/>
            <g transform="matrix(2.1659,0,0,2.1659,-1407.78,-1609.65)">
                <path d="M1379.69,1330.89L1379.69,1336.68C1379.61,1335.71 1379.57,1334.75 1379.57,1333.78C1379.57,1332.82 1379.61,1331.85 1379.69,1330.89Z"/>
            </g>
            <path d="M2224.09,785.303L2223.9,785.491C2221.18,827.443 2189.25,856.583 2147.73,861.178L2147.73,861.178L2147.73,861.178C2146.72,861.29 2145.7,861.388 2144.67,861.471L2145.48,861.802L2137.68,861.802C2137.16,861.81 2136.63,861.814 2136.1,861.814L2136.11,861.802L2060.71,861.802L2060.71,826.96L2061.05,827.097C2062.5,782.885 2096.33,746.805 2139.57,741.816L2139.57,741.816L2139.57,741.816C2142.06,741.528 2144.58,741.344 2147.13,741.267L2146.63,740.981L2224.09,740.981L2224.09,785.303Z"/>
            <path d="M1367.88,1368.39L1276.89,1368.39L1276.89,994.671C1276.89,994.671 1276.9,994.384 1276.9,994.384C1277.05,945.457 1316.82,905.173 1365.78,905.173L1442.64,905.173L1442.64,972.78L1449.55,964.919L1457.64,956.185C1476.58,936.523 1495.64,922.012 1514.83,912.588C1539.11,900.665 1568.41,894.704 1602.72,894.704C1639.65,894.704 1668.88,901.247 1690.39,914.332C1711.91,927.418 1729.5,946.901 1743.17,972.78C1771.09,942.539 1796.53,921.966 1819.5,911.061C1842.48,900.157 1870.83,894.704 1904.56,894.704C1954.28,894.704 1993.1,909.462 2021.02,938.977C2041.3,960.417 2054.21,990.642 2059.76,1029.65L2059.74,994.671L2059.74,994.483C2059.74,947.007 2097.04,908.174 2143.91,905.718L2143.91,905.717L2143.91,905.717C2145.48,905.635 2225.51,905.173 2225.51,905.173L2225.51,972.78C2249.35,944.574 2273.41,924.51 2297.69,912.588C2321.97,900.665 2351.27,894.704 2385.58,894.704C2422.51,894.704 2451.74,901.247 2473.26,914.332C2494.77,927.418 2512.37,946.901 2526.03,972.78C2553.95,942.539 2579.39,921.966 2602.36,911.061C2625.34,900.157 2653.69,894.704 2687.42,894.704C2737.14,894.704 2775.96,909.462 2803.88,938.977C2816.49,952.316 2826.26,969.056 2833.18,989.197C2836.91,981.013 2841.05,973.724 2845.58,967.328C2857.65,950.317 2875.03,935.56 2897.71,923.056C2913.99,914.042 2936.38,907.063 2964.88,902.119C2993.38,897.176 3024.2,894.704 3057.35,894.704C3110.56,894.704 3153.31,897.685 3185.59,903.646C3217.86,909.607 3244.76,922.038 3266.28,940.939C3281.4,954.025 3293.32,972.562 3302.05,996.552C3310.77,1020.54 3315.13,1043.44 3315.13,1065.25L3315.13,1266.62L3412.84,1125.88L3253.2,905.173L3411.21,905.681C3442.2,905.681 3469.5,921.58 3485.4,945.658L3485.41,945.662C3487.08,948.201 3537.58,1034.28 3537.58,1034.28C3537.58,1034.28 3598.47,942.896 3601.62,938.98L3601.62,938.977L3601.62,938.976C3617.91,918.682 3642.92,905.681 3670.94,905.681L3818.92,905.173L3661.02,1125.88L3830.26,1368.39C3830.26,1368.39 3675.83,1368.1 3675.05,1368.1C3640.76,1368.1 3610.99,1348.63 3596.18,1320.16L3596.18,1320.16L3537.58,1219.22L3463.26,1328.17L3463.26,1328.17C3447.93,1351.29 3422.07,1366.83 3392.55,1367.93L3391.72,1368.39L3170.76,1368.39C3164.07,1356.47 3159.7,1347.39 3157.67,1341.13C3155.63,1334.88 3153.6,1325.07 3151.56,1311.69C3128.3,1334.08 3105.18,1350.08 3082.21,1359.67C3050.81,1372.47 3014.31,1378.86 2972.73,1378.86C2917.48,1378.86 2875.53,1366.07 2846.89,1340.48C2846.61,1340.23 2837.61,1329.83 2832.55,1324C2817.71,1349.38 2790.65,1366.77 2759.47,1368.04L2758.95,1368.39L2667.79,1368.39L2667.79,1104.51C2667.79,1083.57 2663.72,1068.01 2655.58,1057.84C2643.66,1041.84 2628.83,1033.85 2611.09,1033.85C2590.15,1033.85 2573.28,1041.41 2560.49,1056.53C2547.7,1071.65 2541.3,1095.93 2541.3,1129.37L2541.3,1280.48L2540.91,1280.9C2540.32,1326.55 2505.23,1363.94 2460.55,1368.17L2460.34,1368.39L2457.76,1368.39C2455.88,1368.51 2453.98,1368.57 2452.08,1368.57C2450.17,1368.57 2448.27,1368.51 2446.39,1368.39L2363.34,1368.39L2363.34,1284.11C2363.27,1282.66 2363.23,1281.2 2363.23,1279.73C2363.23,1278.26 2363.27,1276.8 2363.34,1275.35L2363.34,1113.23C2363.34,1092.88 2362.17,1079.06 2359.85,1071.79C2356.07,1060.16 2349.53,1050.78 2340.22,1043.66C2330.91,1036.54 2320.01,1032.97 2307.51,1032.97C2287.15,1032.97 2270.43,1040.68 2257.35,1056.09C2244.26,1071.5 2237.72,1096.8 2237.72,1131.99L2237.72,1280.29L2237.61,1280.39C2237.02,1328.51 2198.09,1367.47 2149.98,1368.11L2149.69,1368.39L1884.93,1368.39L1884.93,1104.51C1884.93,1083.57 1880.86,1068.01 1872.72,1057.84C1860.79,1041.84 1845.96,1033.85 1828.23,1033.85C1807.29,1033.85 1790.42,1041.41 1777.63,1056.53C1764.84,1071.65 1758.44,1095.93 1758.44,1129.37L1758.64,1280.17C1758.64,1329.23 1718.81,1369.06 1669.75,1369.06L1580.48,1368.39L1580.48,1113.23C1580.48,1092.88 1579.31,1079.06 1576.99,1071.79C1573.21,1060.16 1566.66,1050.78 1557.36,1043.66C1548.05,1036.54 1537.15,1032.97 1524.64,1032.97C1504.29,1032.97 1487.57,1040.68 1474.49,1056.09C1461.4,1071.5 1454.86,1096.8 1454.86,1131.99L1454.86,1280.29L1454.66,1280.48C1453.98,1328.13 1415.73,1366.76 1368.23,1368.04L1367.88,1368.39ZM3141.53,1148.56C3117.11,1157.28 3091.66,1164.99 3065.2,1171.68C3029.14,1181.27 3006.32,1190.73 2996.72,1200.03C2986.83,1209.63 2981.89,1220.53 2981.89,1232.74C2981.89,1246.7 2986.76,1258.12 2996.5,1266.98C3006.24,1275.85 3020.56,1280.29 3039.47,1280.29C3059.24,1280.29 3077.63,1275.49 3094.64,1265.89C3111.65,1256.3 3123.72,1244.59 3130.85,1230.78C3137.97,1216.97 3141.53,1199.01 3141.53,1176.91L3141.53,1148.56ZM2845.75,1148.9C2867.77,1131.26 2902.24,1117.77 2949.18,1108.43C3015.77,1095.06 3058.95,1085.68 3078.72,1080.3C3098.49,1074.92 3119.43,1067.87 3141.53,1059.14C3141.53,1037.34 3137.02,1022.07 3128.01,1013.35C3118.99,1004.62 3103.15,1000.26 3080.47,1000.26C3051.39,1000.26 3023.06,998.931 3015.04,1014.22C2993.48,1055.31 2962.11,1067.89 2932.11,1068.1C2886.43,1068.41 2843.9,1040.08 2843.9,1040.08C2845.14,1051.8 2845.75,1064.27 2845.75,1077.46L2845.75,1148.9Z"/>
        </g>
    </g>
</svg>
