<svg xmlns="http://www.w3.org/2000/svg" viewBox="0 0 315.59 115.75"><g data-name="Layer 2"><g data-name="Layer 1"><path fill="#010203" d="M85.85.17h6.26v102.17h-6.26zm-9.73 64.12a38.06 38.06 0 11-38.06-38.06 38.1 38.1 0 0138.06 38.06zm-6.34 0A31.72 31.72 0 1038.06 96a31.76 31.76 0 0031.72-31.71zM173.5 83.66a38.19 38.19 0 115.25-19.39v3.12h-69.84a31.9 31.9 0 0059.2 13.08zm-64.59-22.52h63.43a31.87 31.87 0 00-63.43 0zm68.91 50.46l1.09 1.73h-1L177 112c-.24-.38-.45-.67-.6-.87a1.92 1.92 0 00-.43-.43 1.14 1.14 0 00-.38-.16 2.59 2.59 0 00-.47 0h-1v2.81h-.84V107h2.81a3.9 3.9 0 011.29.17 1.4 1.4 0 01.7.6 1.86 1.86 0 01.26 1 1.6 1.6 0 01-.43 1.14 2.26 2.26 0 01-1.35.59 2.27 2.27 0 01.51.31 4.62 4.62 0 01.75.79zm-.94-1.93a.94.94 0 00.49-.38 1 1 0 00.16-.57.92.92 0 00-.32-.73 1.48 1.48 0 00-1-.29h-2v2.09H176a2.67 2.67 0 00.88-.12zm4.54.54a5.54 5.54 0 11-5.54-5.55 5.55 5.55 0 015.54 5.55zm-1.11 0a4.43 4.43 0 10-4.43 4.43 4.43 4.43 0 004.43-4.43zM314 99h-14.81v1.5h16.18v-8.36H314zm-14.81-11.3h16.18v-1.49h-16.18zm8.21-17.63v4.27h1.33v-2.78H313a4.52 4.52 0 011.24 3.34v.15c0 3-1.95 4.29-6.55 4.29h-.83c-4.61 0-6.55-1.39-6.55-4.13v-.12c0-2.49 1.43-3.51 4.77-3.51v-1.51h-.58c-3.65 0-5.54 1.68-5.54 5.14 0 3.7 2.3 5.69 7.9 5.69h.83c5.6 0 7.9-2 7.9-5.89a6.47 6.47 0 00-1.86-4.94zm8-14.15v-1.49h-16.21v1.49h7.26v7.2h-7.26v1.49h16.18v-1.49h-7.6v-7.2zm0-11.59h-14.87V40.2h-1.34v9.73h1.34v-4.11h14.84zm0-10.23h-16.21v1.49h16.18zm0-16.26h-16.21v1.41h9.89l3.75-.06-13.64 7.63v1.62h16.18V27h-9.9l-3.76.08 13.66-7.65zm-8.51-5.21h.83c5.6 0 7.9-2 7.9-5.89a6.42 6.42 0 00-1.87-4.93h-6.35v4.27h1.33V3.3H313a4.52 4.52 0 011.24 3.34v.14c0 3-1.95 4.3-6.55 4.3h-.83c-4.61 0-6.56-1.39-6.56-4.13v-.13c0-2.48 1.44-3.5 4.78-3.5V1.81h-.58c-3.66 0-5.5 1.68-5.5 5.19 0 3.64 2.26 5.63 7.86 5.63z"/><path fill="#ff5000" d="M291 102.28H188.75V0H291zm-97.1-5.15h92v-92h-92zM242.73 15h-5.15v58.89h5.15zm-2.53 72.3a3.31 3.31 0 10-3.3-3.3 3.31 3.31 0 003.3 3.34z"/></g></g></svg>